<?xml version="1.0" encoding="UTF-8" standalone="no"?><svg xmlns="http://www.w3.org/2000/svg" xmlns:xlink="http://www.w3.org/1999/xlink" contentStyleType="text/css" height="222px" preserveAspectRatio="none" style="width:1855px;height:222px;background:#FFFFFF;" version="1.1" viewBox="0 0 1855 222" width="1855px" zoomAndPan="magnify"><defs/><g><!--MD5=[2fd752ddb3ee8865719f517b7b5056fd]
class User_Command_Impl--><g id="elem_User_Command_Impl"><rect codeLine="27" fill="#F1F1F1" height="64.4883" id="User_Command_Impl" rx="2.5" ry="2.5" style="stroke:#181818;stroke-width:0.5;" width="226" x="1044.5" y="7"/><ellipse cx="1081.1" cy="23" fill="#A9DCDF" rx="11" ry="11" style="stroke:#181818;stroke-width:1.0;"/><path d="M1080.9633,18.3481 L1079.8095,23.4199 L1082.1254,23.4199 Z M1079.4691,16.1069 L1082.4657,16.1069 L1085.8109,28.5 L1083.3622,28.5 L1082.5985,25.437 L1079.3197,25.437 L1078.5727,28.5 L1076.1239,28.5 Z " fill="#000000"/><text fill="#000000" font-family="sans-serif" font-size="14" font-style="italic" lengthAdjust="spacing" textLength="146" x="1099.9" y="28.291">User_Command_Impl</text><line style="stroke:#181818;stroke-width:0.5;" x1="1045.5" x2="1269.5" y1="39" y2="39"/><rect fill="none" height="6" style="stroke:#C82930;stroke-width:1.0;" width="6" x="1052.5" y="49.7441"/><text fill="#000000" font-family="sans-serif" font-size="14" lengthAdjust="spacing" textLength="200" x="1064.5" y="56.5352">Tree_Context &amp;tree_context_</text><line style="stroke:#181818;stroke-width:0.5;" x1="1045.5" x2="1269.5" y1="63.4883" y2="63.4883"/></g><!--MD5=[2fc9acb6d16df52754377e4be2ab91e4]
class Eval_Command--><g id="elem_Eval_Command"><rect codeLine="8" fill="#F1F1F1" height="64.4883" id="Eval_Command" rx="2.5" ry="2.5" style="stroke:#181818;stroke-width:0.5;" width="137" x="821" y="143.5"/><ellipse cx="836" cy="159.5" fill="#ADD1B2" rx="11" ry="11" style="stroke:#181818;stroke-width:1.0;"/><path d="M838.4731,165.6431 Q837.8921,165.9419 837.2529,166.0913 Q836.6138,166.2407 835.9082,166.2407 Q833.4014,166.2407 832.0815,164.5889 Q830.7617,162.937 830.7617,159.8159 Q830.7617,156.6865 832.0815,155.0347 Q833.4014,153.3828 835.9082,153.3828 Q836.6138,153.3828 837.2612,153.5322 Q837.9087,153.6816 838.4731,153.9805 L838.4731,156.7031 Q837.8423,156.1221 837.2488,155.8523 Q836.6553,155.5825 836.0244,155.5825 Q834.6797,155.5825 833.9949,156.6492 Q833.3101,157.7158 833.3101,159.8159 Q833.3101,161.9077 833.9949,162.9744 Q834.6797,164.041 836.0244,164.041 Q836.6553,164.041 837.2488,163.7712 Q837.8423,163.5015 838.4731,162.9204 Z " fill="#000000"/><text fill="#000000" font-family="sans-serif" font-size="14" lengthAdjust="spacing" textLength="105" x="850" y="164.791">Eval_Command</text><line style="stroke:#181818;stroke-width:0.5;" x1="822" x2="957" y1="175.5" y2="175.5"/><rect fill="none" height="6" style="stroke:#C82930;stroke-width:1.0;" width="6" x="829" y="186.2441"/><text fill="#000000" font-family="sans-serif" font-size="14" lengthAdjust="spacing" textLength="97" x="841" y="193.0352">string format_</text><line style="stroke:#181818;stroke-width:0.5;" x1="822" x2="957" y1="199.9883" y2="199.9883"/></g><!--MD5=[5b620e3760c8472dc113f6d49573cdab]
class Expr_Command--><g id="elem_Expr_Command"><rect codeLine="11" fill="#F1F1F1" height="64.4883" id="Expr_Command" rx="2.5" ry="2.5" style="stroke:#181818;stroke-width:0.5;" width="142" x="993.5" y="143.5"/><ellipse cx="1008.5" cy="159.5" fill="#ADD1B2" rx="11" ry="11" style="stroke:#181818;stroke-width:1.0;"/><path d="M1010.9731,165.6431 Q1010.3921,165.9419 1009.7529,166.0913 Q1009.1138,166.2407 1008.4082,166.2407 Q1005.9014,166.2407 1004.5815,164.5889 Q1003.2617,162.937 1003.2617,159.8159 Q1003.2617,156.6865 1004.5815,155.0347 Q1005.9014,153.3828 1008.4082,153.3828 Q1009.1138,153.3828 1009.7612,153.5322 Q1010.4087,153.6816 1010.9731,153.9805 L1010.9731,156.7031 Q1010.3423,156.1221 1009.7488,155.8523 Q1009.1553,155.5825 1008.5244,155.5825 Q1007.1797,155.5825 1006.4949,156.6492 Q1005.8101,157.7158 1005.8101,159.8159 Q1005.8101,161.9077 1006.4949,162.9744 Q1007.1797,164.041 1008.5244,164.041 Q1009.1553,164.041 1009.7488,163.7712 Q1010.3423,163.5015 1010.9731,162.9204 Z " fill="#000000"/><text fill="#000000" font-family="sans-serif" font-size="14" lengthAdjust="spacing" textLength="110" x="1022.5" y="164.791">Expr_Command</text><line style="stroke:#181818;stroke-width:0.5;" x1="994.5" x2="1134.5" y1="175.5" y2="175.5"/><rect fill="none" height="6" style="stroke:#C82930;stroke-width:1.0;" width="6" x="1001.5" y="186.2441"/><text fill="#000000" font-family="sans-serif" font-size="14" lengthAdjust="spacing" textLength="83" x="1013.5" y="193.0352">string expr_</text><line style="stroke:#181818;stroke-width:0.5;" x1="994.5" x2="1134.5" y1="199.9883" y2="199.9883"/></g><!--MD5=[29746b5b8d2e2a3516b2a4cbc14a03ec]
class Format_Command--><g id="elem_Format_Command"><rect codeLine="14" fill="#F1F1F1" height="64.4883" id="Format_Command" rx="2.5" ry="2.5" style="stroke:#181818;stroke-width:0.5;" width="159" x="1171" y="143.5"/><ellipse cx="1186" cy="159.5" fill="#ADD1B2" rx="11" ry="11" style="stroke:#181818;stroke-width:1.0;"/><path d="M1188.4731,165.6431 Q1187.8921,165.9419 1187.2529,166.0913 Q1186.6138,166.2407 1185.9082,166.2407 Q1183.4014,166.2407 1182.0815,164.5889 Q1180.7617,162.937 1180.7617,159.8159 Q1180.7617,156.6865 1182.0815,155.0347 Q1183.4014,153.3828 1185.9082,153.3828 Q1186.6138,153.3828 1187.2612,153.5322 Q1187.9087,153.6816 1188.4731,153.9805 L1188.4731,156.7031 Q1187.8423,156.1221 1187.2488,155.8523 Q1186.6553,155.5825 1186.0244,155.5825 Q1184.6797,155.5825 1183.9949,156.6492 Q1183.3101,157.7158 1183.3101,159.8159 Q1183.3101,161.9077 1183.9949,162.9744 Q1184.6797,164.041 1186.0244,164.041 Q1186.6553,164.041 1187.2488,163.7712 Q1187.8423,163.5015 1188.4731,162.9204 Z " fill="#000000"/><text fill="#000000" font-family="sans-serif" font-size="14" lengthAdjust="spacing" textLength="127" x="1200" y="164.791">Format_Command</text><line style="stroke:#181818;stroke-width:0.5;" x1="1172" x2="1329" y1="175.5" y2="175.5"/><rect fill="none" height="6" style="stroke:#C82930;stroke-width:1.0;" width="6" x="1179" y="186.2441"/><text fill="#000000" font-family="sans-serif" font-size="14" lengthAdjust="spacing" textLength="97" x="1191" y="193.0352">string format_</text><line style="stroke:#181818;stroke-width:0.5;" x1="1172" x2="1329" y1="199.9883" y2="199.9883"/></g><!--MD5=[e7d8f5bcc21dc460bcda1d80d3d76954]
class Print_Command--><g id="elem_Print_Command"><rect codeLine="24" fill="#F1F1F1" height="64.4883" id="Print_Command" rx="2.5" ry="2.5" style="stroke:#181818;stroke-width:0.5;" width="142" x="1365.5" y="143.5"/><ellipse cx="1380.5" cy="159.5" fill="#ADD1B2" rx="11" ry="11" style="stroke:#181818;stroke-width:1.0;"/><path d="M1382.9731,165.6431 Q1382.3921,165.9419 1381.7529,166.0913 Q1381.1138,166.2407 1380.4082,166.2407 Q1377.9014,166.2407 1376.5815,164.5889 Q1375.2617,162.937 1375.2617,159.8159 Q1375.2617,156.6865 1376.5815,155.0347 Q1377.9014,153.3828 1380.4082,153.3828 Q1381.1138,153.3828 1381.7612,153.5322 Q1382.4087,153.6816 1382.9731,153.9805 L1382.9731,156.7031 Q1382.3423,156.1221 1381.7488,155.8523 Q1381.1553,155.5825 1380.5244,155.5825 Q1379.1797,155.5825 1378.4949,156.6492 Q1377.8101,157.7158 1377.8101,159.8159 Q1377.8101,161.9077 1378.4949,162.9744 Q1379.1797,164.041 1380.5244,164.041 Q1381.1553,164.041 1381.7488,163.7712 Q1382.3423,163.5015 1382.9731,162.9204 Z " fill="#000000"/><text fill="#000000" font-family="sans-serif" font-size="14" lengthAdjust="spacing" textLength="110" x="1394.5" y="164.791">Print_Command</text><line style="stroke:#181818;stroke-width:0.5;" x1="1366.5" x2="1506.5" y1="175.5" y2="175.5"/><rect fill="none" height="6" style="stroke:#C82930;stroke-width:1.0;" width="6" x="1373.5" y="186.2441"/><text fill="#000000" font-family="sans-serif" font-size="14" lengthAdjust="spacing" textLength="97" x="1385.5" y="193.0352">string format_</text><line style="stroke:#181818;stroke-width:0.5;" x1="1366.5" x2="1506.5" y1="199.9883" y2="199.9883"/></g><!--MD5=[4e68e1b2ef5ddfaa748426df4e6fd28b]
class Quit_Command--><g id="elem_Quit_Command"><rect fill="#F1F1F1" height="48" id="Quit_Command" rx="2.5" ry="2.5" style="stroke:#181818;stroke-width:0.5;" width="139" x="1543" y="151.5"/><ellipse cx="1558" cy="167.5" fill="#ADD1B2" rx="11" ry="11" style="stroke:#181818;stroke-width:1.0;"/><path d="M1560.4731,173.6431 Q1559.8921,173.9419 1559.2529,174.0913 Q1558.6138,174.2407 1557.9082,174.2407 Q1555.4014,174.2407 1554.0815,172.5889 Q1552.7617,170.937 1552.7617,167.8159 Q1552.7617,164.6865 1554.0815,163.0347 Q1555.4014,161.3828 1557.9082,161.3828 Q1558.6138,161.3828 1559.2612,161.5322 Q1559.9087,161.6816 1560.4731,161.9805 L1560.4731,164.7031 Q1559.8423,164.1221 1559.2488,163.8523 Q1558.6553,163.5825 1558.0244,163.5825 Q1556.6797,163.5825 1555.9949,164.6492 Q1555.3101,165.7158 1555.3101,167.8159 Q1555.3101,169.9077 1555.9949,170.9744 Q1556.6797,172.041 1558.0244,172.041 Q1558.6553,172.041 1559.2488,171.7712 Q1559.8423,171.5015 1560.4731,170.9204 Z " fill="#000000"/><text fill="#000000" font-family="sans-serif" font-size="14" lengthAdjust="spacing" textLength="107" x="1572" y="172.791">Quit_Command</text><line style="stroke:#181818;stroke-width:0.5;" x1="1544" x2="1681" y1="183.5" y2="183.5"/><line style="stroke:#181818;stroke-width:0.5;" x1="1544" x2="1681" y1="191.5" y2="191.5"/></g><!--MD5=[014d3f07f401d6b332532746fbfbd0f9]
class Set_Command--><g id="elem_Set_Command"><rect fill="#F1F1F1" height="48" id="Set_Command" rx="2.5" ry="2.5" style="stroke:#181818;stroke-width:0.5;" width="131" x="1717" y="151.5"/><ellipse cx="1732" cy="167.5" fill="#ADD1B2" rx="11" ry="11" style="stroke:#181818;stroke-width:1.0;"/><path d="M1734.4731,173.6431 Q1733.8921,173.9419 1733.2529,174.0913 Q1732.6138,174.2407 1731.9082,174.2407 Q1729.4014,174.2407 1728.0815,172.5889 Q1726.7617,170.937 1726.7617,167.8159 Q1726.7617,164.6865 1728.0815,163.0347 Q1729.4014,161.3828 1731.9082,161.3828 Q1732.6138,161.3828 1733.2612,161.5322 Q1733.9087,161.6816 1734.4731,161.9805 L1734.4731,164.7031 Q1733.8423,164.1221 1733.2488,163.8523 Q1732.6553,163.5825 1732.0244,163.5825 Q1730.6797,163.5825 1729.9949,164.6492 Q1729.3101,165.7158 1729.3101,167.8159 Q1729.3101,169.9077 1729.9949,170.9744 Q1730.6797,172.041 1732.0244,172.041 Q1732.6553,172.041 1733.2488,171.7712 Q1733.8423,171.5015 1734.4731,170.9204 Z " fill="#000000"/><text fill="#000000" font-family="sans-serif" font-size="14" lengthAdjust="spacing" textLength="99" x="1746" y="172.791">Set_Command</text><line style="stroke:#181818;stroke-width:0.5;" x1="1718" x2="1847" y1="183.5" y2="183.5"/><line style="stroke:#181818;stroke-width:0.5;" x1="1718" x2="1847" y1="191.5" y2="191.5"/></g><!--MD5=[305f4ac4b80daa09cca67b7c6118cc82]
class Macro_Command--><g id="elem_Macro_Command"><rect codeLine="17" fill="#F1F1F1" height="80.9766" id="Macro_Command" rx="2.5" ry="2.5" style="stroke:#181818;stroke-width:0.5;" width="339" x="7" y="135"/><ellipse cx="112.25" cy="151" fill="#ADD1B2" rx="11" ry="11" style="stroke:#181818;stroke-width:1.0;"/><path d="M114.7231,157.1431 Q114.1421,157.4419 113.5029,157.5913 Q112.8638,157.7407 112.1582,157.7407 Q109.6514,157.7407 108.3315,156.0889 Q107.0117,154.437 107.0117,151.3159 Q107.0117,148.1865 108.3315,146.5347 Q109.6514,144.8828 112.1582,144.8828 Q112.8638,144.8828 113.5112,145.0322 Q114.1587,145.1816 114.7231,145.4805 L114.7231,148.2031 Q114.0923,147.6221 113.4988,147.3523 Q112.9053,147.0825 112.2744,147.0825 Q110.9297,147.0825 110.2449,148.1492 Q109.5601,149.2158 109.5601,151.3159 Q109.5601,153.4077 110.2449,154.4744 Q110.9297,155.541 112.2744,155.541 Q112.9053,155.541 113.4988,155.2712 Q114.0923,155.0015 114.7231,154.4204 Z " fill="#000000"/><text fill="#000000" font-family="sans-serif" font-size="14" lengthAdjust="spacing" textLength="120" x="132.75" y="156.291">Macro_Command</text><line style="stroke:#181818;stroke-width:0.5;" x1="8" x2="345" y1="167" y2="167"/><rect fill="none" height="6" style="stroke:#C82930;stroke-width:1.0;" width="6" x="15" y="177.7441"/><text fill="#000000" font-family="sans-serif" font-size="14" lengthAdjust="spacing" textLength="313" x="27" y="184.5352">vector &lt;User_Command&gt; macro_commands_</text><rect fill="none" height="6" style="stroke:#C82930;stroke-width:1.0;" width="6" x="15" y="194.2324"/><text fill="#000000" font-family="sans-serif" font-size="14" lengthAdjust="spacing" textLength="83" x="27" y="201.0234">string expr_</text><line style="stroke:#181818;stroke-width:0.5;" x1="8" x2="345" y1="207.9766" y2="207.9766"/></g><!--MD5=[a2e01b3699a4ea8a47941fb6bec69007]
class User_Command--><g id="elem_User_Command"><rect codeLine="21" fill="#F1F1F1" height="64.4883" id="User_Command" rx="2.5" ry="2.5" style="stroke:#181818;stroke-width:0.5;" width="389" x="389" y="143.5"/><ellipse cx="524.75" cy="159.5" fill="#ADD1B2" rx="11" ry="11" style="stroke:#181818;stroke-width:1.0;"/><path d="M527.2231,165.6431 Q526.6421,165.9419 526.0029,166.0913 Q525.3638,166.2407 524.6582,166.2407 Q522.1514,166.2407 520.8315,164.5889 Q519.5117,162.937 519.5117,159.8159 Q519.5117,156.6865 520.8315,155.0347 Q522.1514,153.3828 524.6582,153.3828 Q525.3638,153.3828 526.0112,153.5322 Q526.6587,153.6816 527.2231,153.9805 L527.2231,156.7031 Q526.5923,156.1221 525.9988,155.8523 Q525.4053,155.5825 524.7744,155.5825 Q523.4297,155.5825 522.7449,156.6492 Q522.0601,157.7158 522.0601,159.8159 Q522.0601,161.9077 522.7449,162.9744 Q523.4297,164.041 524.7744,164.041 Q525.4053,164.041 525.9988,163.7712 Q526.5923,163.5015 527.2231,162.9204 Z " fill="#000000"/><text fill="#000000" font-family="sans-serif" font-size="14" lengthAdjust="spacing" textLength="109" x="545.25" y="164.791">User_Command</text><line style="stroke:#181818;stroke-width:0.5;" x1="390" x2="777" y1="175.5" y2="175.5"/><rect fill="none" height="6" style="stroke:#C82930;stroke-width:1.0;" width="6" x="397" y="186.2441"/><text fill="#000000" font-family="sans-serif" font-size="14" lengthAdjust="spacing" textLength="363" x="409" y="193.0352">Refcounter &lt;User_Command_Impl&gt; command_impl_</text><line style="stroke:#181818;stroke-width:0.5;" x1="390" x2="777" y1="199.9883" y2="199.9883"/></g><!--MD5=[921ae2ffc54c51d74f0b99777314d27f]
class Tree_Context--><g id="elem_Tree_Context"><rect fill="#F1F1F1" height="48" id="Tree_Context" rx="2.5" ry="2.5" style="stroke:#181818;stroke-width:0.5;" width="125" x="1314" y="15"/><ellipse cx="1329" cy="31" fill="#ADD1B2" rx="11" ry="11" style="stroke:#181818;stroke-width:1.0;"/><path d="M1331.4731,37.1431 Q1330.8921,37.4419 1330.2529,37.5913 Q1329.6138,37.7407 1328.9082,37.7407 Q1326.4014,37.7407 1325.0815,36.0889 Q1323.7617,34.437 1323.7617,31.3159 Q1323.7617,28.1865 1325.0815,26.5347 Q1326.4014,24.8828 1328.9082,24.8828 Q1329.6138,24.8828 1330.2612,25.0322 Q1330.9087,25.1816 1331.4731,25.4805 L1331.4731,28.2031 Q1330.8423,27.6221 1330.2488,27.3523 Q1329.6553,27.0825 1329.0244,27.0825 Q1327.6797,27.0825 1326.9949,28.1492 Q1326.3101,29.2158 1326.3101,31.3159 Q1326.3101,33.4077 1326.9949,34.4744 Q1327.6797,35.541 1329.0244,35.541 Q1329.6553,35.541 1330.2488,35.2712 Q1330.8423,35.0015 1331.4731,34.4204 Z " fill="#000000"/><text fill="#000000" font-family="sans-serif" font-size="14" lengthAdjust="spacing" textLength="93" x="1343" y="36.291">Tree_Context</text><line style="stroke:#181818;stroke-width:0.5;" x1="1315" x2="1438" y1="47" y2="47"/><line style="stroke:#181818;stroke-width:0.5;" x1="1315" x2="1438" y1="55" y2="55"/></g><!--MD5=[1f8ac2c227927a81f2814ce12859f0cf]
reverse link User_Command_Impl to Eval_Command--><g id="link_User_Command_Impl_Eval_Command"><path codeLine="1" d="M1068.68,84.58 C1030.47,103.75 986.71,125.71 952,143.13 " fill="none" id="User_Command_Impl-backto-Eval_Command" style="stroke:#181818;stroke-width:1.0;"/><polygon fill="none" points="1065.42,78.38,1086.43,75.67,1071.7,90.89,1065.42,78.38" style="stroke:#181818;stroke-width:1.0;"/></g><!--MD5=[4199e824f5418860385c9febb048fec4]
reverse link User_Command_Impl to Expr_Command--><g id="link_User_Command_Impl_Expr_Command"><path codeLine="2" d="M1121.17,92.55 C1109.28,109.73 1096.47,128.27 1086.03,143.36 " fill="none" id="User_Command_Impl-backto-Expr_Command" style="stroke:#181818;stroke-width:1.0;"/><polygon fill="none" points="1115.31,88.7,1132.45,76.23,1126.83,96.66,1115.31,88.7" style="stroke:#181818;stroke-width:1.0;"/></g><!--MD5=[8fb4937d775325fa545ed696ed50d917]
reverse link User_Command_Impl to Format_Command--><g id="link_User_Command_Impl_Format_Command"><path codeLine="3" d="M1193.83,92.55 C1205.72,109.73 1218.53,128.27 1228.97,143.36 " fill="none" id="User_Command_Impl-backto-Format_Command" style="stroke:#181818;stroke-width:1.0;"/><polygon fill="none" points="1188.17,96.66,1182.55,76.23,1199.69,88.7,1188.17,96.66" style="stroke:#181818;stroke-width:1.0;"/></g><!--MD5=[0f558c13ab8a3c4e2e00a9e082425899]
reverse link User_Command_Impl to Print_Command--><g id="link_User_Command_Impl_Print_Command"><path codeLine="4" d="M1249.42,84.31 C1289.33,103.55 1335.13,125.63 1371.43,143.13 " fill="none" id="User_Command_Impl-backto-Print_Command" style="stroke:#181818;stroke-width:1.0;"/><polygon fill="none" points="1246.42,90.64,1231.44,75.64,1252.49,78.02,1246.42,90.64" style="stroke:#181818;stroke-width:1.0;"/></g><!--MD5=[82d70d01e3b9858ffd32da78d26e8bfc]
reverse link User_Command_Impl to Quit_Command--><g id="link_User_Command_Impl_Quit_Command"><path codeLine="5" d="M1298.82,75.88 C1397.76,101.09 1514.23,131.02 1525.5,135 C1538.48,139.58 1552.19,145.35 1564.79,151.04 " fill="none" id="User_Command_Impl-backto-Quit_Command" style="stroke:#181818;stroke-width:1.0;"/><polygon fill="none" points="1297.14,82.67,1279.49,70.95,1300.6,69.11,1297.14,82.67" style="stroke:#181818;stroke-width:1.0;"/></g><!--MD5=[317a2e078c370d6240448f14b8324d7c]
reverse link User_Command_Impl to Set_Command--><g id="link_User_Command_Impl_Set_Command"><path codeLine="6" d="M1299.21,75.22 C1478.06,108.52 1532.63,84.11 1699.5,135 C1712.93,139.1 1726.94,145.04 1739.53,151.09 " fill="none" id="User_Command_Impl-backto-Set_Command" style="stroke:#181818;stroke-width:1.0;"/><polygon fill="none" points="1298.05,82.13,1279.74,71.46,1300.71,68.38,1298.05,82.13" style="stroke:#181818;stroke-width:1.0;"/></g><!--MD5=[733ccedc28f098d3f05a091beef18458]
reverse link User_Command_Impl to Macro_Command--><g id="link_User_Command_Impl_Macro_Command"><path codeLine="7" d="M1015.36,53.15 C856.06,68.79 590.38,97.54 363.5,135 C357.85,135.93 352.12,136.92 346.33,137.95 " fill="none" id="User_Command_Impl-backto-Macro_Command" style="stroke:#181818;stroke-width:1.0;"/><polygon fill="none" points="1014.54,46.2,1035.13,51.23,1015.9,60.13,1014.54,46.2" style="stroke:#181818;stroke-width:1.0;"/></g><!--MD5=[e68c7352352de7774631030d67570e13]
reverse link User_Command_Impl to Tree_Context--><g id="link_User_Command_Impl_Tree_Context"><path codeLine="30" d="M1271.5,51 C1285.22,56.01 1299.9,58.5 1313.77,59.09 " fill="none" id="User_Command_Impl-backto-Tree_Context" style="stroke:#181818;stroke-width:1.0;"/><polygon fill="none" points="1271.5,51,1275.764,56.8154,1282.772,55.1161,1278.508,49.3007,1271.5,51" style="stroke:#181818;stroke-width:1.0;"/></g><!--MD5=[82d767123b6b755a757ce2021eb7b7a9]
reverse link User_Command to User_Command_Impl--><g id="link_User_Command_User_Command_Impl"><path codeLine="31" d="M791.97,180.2 C796.44,168.82 789.42,146.91 803.5,135 C868.48,80.03 962.19,56.57 1036.87,46.7 " fill="none" id="User_Command-backto-User_Command_Impl" style="stroke:#181818;stroke-width:1.0;"/><polygon fill="none" points="780.81,186.74,788.0084,187.1685,791.1725,180.6886,783.9741,180.2602,780.81,186.74" style="stroke:#181818;stroke-width:1.0;"/></g><!--MD5=[3b882c630e8781123fe28e86ece39323]
reverse link Macro_Command to User_Command--><g id="link_Macro_Command_User_Command"><path codeLine="32" d="M360.52,175.5 C367.5,175.5 374.47,175.5 381.44,175.5 " fill="none" id="Macro_Command-backto-User_Command" style="stroke:#181818;stroke-width:1.0;"/><polygon fill="none" points="347.73,175.5,353.73,179.5,359.73,175.5,353.73,171.5,347.73,175.5" style="stroke:#181818;stroke-width:1.0;"/></g><!--MD5=[77dfb3192aeb60c7048a1cbea3cdb3ec]
@startuml command
    User_Command_Impl <|- - Eval_Command 
    User_Command_Impl <|- - Expr_Command 
    User_Command_Impl <|- - Format_Command 
    User_Command_Impl <|- - Print_Command 
    User_Command_Impl <|- - Quit_Command 
    User_Command_Impl <|- - Set_Command 
    User_Command_Impl <|- - Macro_Command 
    class Eval_Command {
        -string format_
    }
    class Expr_Command {
        -string expr_
    }
    class Format_Command {
        -string format_ 
    }
    class Macro_Command {
        -vector <User_Command> macro_commands_
        -string expr_
    }
    class User_Command {
        -Refcounter <User_Command_Impl> command_impl_
    }
    class Print_Command {
        -string format_
    }
    abstract class User_Command_Impl {
        -Tree_Context &tree_context_
    }
    User_Command_Impl::Tree_Context o- Tree_Context 
    User_Command::command_impl_ o- User_Command_Impl 
    Macro_Command o- User_Command

@enduml

PlantUML version 1.2022.13(Sat Nov 19 07:22:17 CST 2022)
(GPL source distribution)
Java Runtime: OpenJDK Runtime Environment
JVM: OpenJDK 64-Bit Server VM
Default Encoding: UTF-8
Language: en
Country: MX
--></g></svg>