<?xml version="1.0" encoding="UTF-8" standalone="no"?><svg xmlns="http://www.w3.org/2000/svg" xmlns:xlink="http://www.w3.org/1999/xlink" contentStyleType="text/css" height="438px" preserveAspectRatio="none" style="width:925px;height:438px;background:#FFFFFF;" version="1.1" viewBox="0 0 925 438" width="925px" zoomAndPan="magnify"><defs/><g><!--MD5=[e53de7dba52a1c1bc25181351b0bc89f]
class Component_Node--><g id="elem_Component_Node"><rect codeLine="11" fill="#F1F1F1" height="64.4883" id="Component_Node" rx="2.5" ry="2.5" style="stroke:#181818;stroke-width:0.5;" width="156" x="632" y="7"/><ellipse cx="647" cy="23" fill="#ADD1B2" rx="11" ry="11" style="stroke:#181818;stroke-width:1.0;"/><path d="M649.4731,29.1431 Q648.8921,29.4419 648.2529,29.5913 Q647.6138,29.7407 646.9082,29.7407 Q644.4014,29.7407 643.0815,28.0889 Q641.7617,26.437 641.7617,23.3159 Q641.7617,20.1865 643.0815,18.5347 Q644.4014,16.8828 646.9082,16.8828 Q647.6138,16.8828 648.2612,17.0322 Q648.9087,17.1816 649.4731,17.4805 L649.4731,20.2031 Q648.8423,19.6221 648.2488,19.3523 Q647.6553,19.0825 647.0244,19.0825 Q645.6797,19.0825 644.9949,20.1492 Q644.3101,21.2158 644.3101,23.3159 Q644.3101,25.4077 644.9949,26.4744 Q645.6797,27.541 647.0244,27.541 Q647.6553,27.541 648.2488,27.2712 Q648.8423,27.0015 649.4731,26.4204 Z " fill="#000000"/><text fill="#000000" font-family="sans-serif" font-size="14" lengthAdjust="spacing" textLength="124" x="661" y="28.291">Component_Node</text><line style="stroke:#181818;stroke-width:0.5;" x1="633" x2="787" y1="39" y2="39"/><rect fill="none" height="6" style="stroke:#C82930;stroke-width:1.0;" width="6" x="640" y="49.7441"/><text fill="#000000" font-family="sans-serif" font-size="14" lengthAdjust="spacing" textLength="58" x="652" y="56.5352">int type_</text><line style="stroke:#181818;stroke-width:0.5;" x1="633" x2="787" y1="63.4883" y2="63.4883"/></g><!--MD5=[83409515f4a73a69ff89ed741659ffcc]
class Composit_Unary_Node--><g id="elem_Composit_Unary_Node"><rect codeLine="17" fill="#F1F1F1" height="64.4883" id="Composit_Unary_Node" rx="2.5" ry="2.5" style="stroke:#181818;stroke-width:0.5;" width="291" x="448.5" y="135"/><ellipse cx="511.75" cy="151" fill="#ADD1B2" rx="11" ry="11" style="stroke:#181818;stroke-width:1.0;"/><path d="M514.2231,157.1431 Q513.6421,157.4419 513.0029,157.5913 Q512.3638,157.7407 511.6582,157.7407 Q509.1514,157.7407 507.8315,156.0889 Q506.5117,154.437 506.5117,151.3159 Q506.5117,148.1865 507.8315,146.5347 Q509.1514,144.8828 511.6582,144.8828 Q512.3638,144.8828 513.0112,145.0322 Q513.6587,145.1816 514.2231,145.4805 L514.2231,148.2031 Q513.5923,147.6221 512.9988,147.3523 Q512.4053,147.0825 511.7744,147.0825 Q510.4297,147.0825 509.7449,148.1492 Q509.0601,149.2158 509.0601,151.3159 Q509.0601,153.4077 509.7449,154.4744 Q510.4297,155.541 511.7744,155.541 Q512.4053,155.541 512.9988,155.2712 Q513.5923,155.0015 514.2231,154.4204 Z " fill="#000000"/><text fill="#000000" font-family="sans-serif" font-size="14" lengthAdjust="spacing" textLength="156" x="532.25" y="156.291">Composit_Unary_Node</text><line style="stroke:#181818;stroke-width:0.5;" x1="449.5" x2="738.5" y1="167" y2="167"/><rect fill="none" height="6" style="stroke:#C82930;stroke-width:1.0;" width="6" x="456.5" y="177.7441"/><text fill="#000000" font-family="sans-serif" font-size="14" lengthAdjust="spacing" textLength="265" x="468.5" y="184.5352">unique_ptr&lt;Component_Node&gt; right_</text><line style="stroke:#181818;stroke-width:0.5;" x1="449.5" x2="738.5" y1="191.4883" y2="191.4883"/></g><!--MD5=[d25eed9738e01ebff6fe54a7a771986c]
class Leaf_Node--><g id="elem_Leaf_Node"><rect codeLine="14" fill="#F1F1F1" height="64.4883" id="Leaf_Node" rx="2.5" ry="2.5" style="stroke:#181818;stroke-width:0.5;" width="103" x="774.5" y="135"/><ellipse cx="789.5" cy="151" fill="#ADD1B2" rx="11" ry="11" style="stroke:#181818;stroke-width:1.0;"/><path d="M791.9731,157.1431 Q791.3921,157.4419 790.7529,157.5913 Q790.1138,157.7407 789.4082,157.7407 Q786.9014,157.7407 785.5815,156.0889 Q784.2617,154.437 784.2617,151.3159 Q784.2617,148.1865 785.5815,146.5347 Q786.9014,144.8828 789.4082,144.8828 Q790.1138,144.8828 790.7612,145.0322 Q791.4087,145.1816 791.9731,145.4805 L791.9731,148.2031 Q791.3423,147.6221 790.7488,147.3523 Q790.1553,147.0825 789.5244,147.0825 Q788.1797,147.0825 787.4949,148.1492 Q786.8101,149.2158 786.8101,151.3159 Q786.8101,153.4077 787.4949,154.4744 Q788.1797,155.541 789.5244,155.541 Q790.1553,155.541 790.7488,155.2712 Q791.3423,155.0015 791.9731,154.4204 Z " fill="#000000"/><text fill="#000000" font-family="sans-serif" font-size="14" lengthAdjust="spacing" textLength="71" x="803.5" y="156.291">Leaf_Node</text><line style="stroke:#181818;stroke-width:0.5;" x1="775.5" x2="876.5" y1="167" y2="167"/><rect fill="none" height="6" style="stroke:#C82930;stroke-width:1.0;" width="6" x="782.5" y="177.7441"/><text fill="#000000" font-family="sans-serif" font-size="14" lengthAdjust="spacing" textLength="59" x="794.5" y="184.5352">int item_</text><line style="stroke:#181818;stroke-width:0.5;" x1="775.5" x2="876.5" y1="191.4883" y2="191.4883"/></g><!--MD5=[80a64f347be0049309acfe280e446fc3]
class Composit_Binary_Node--><g id="elem_Composit_Binary_Node"><rect codeLine="20" fill="#F1F1F1" height="64.4883" id="Composit_Binary_Node" rx="2.5" ry="2.5" style="stroke:#181818;stroke-width:0.5;" width="280" x="316" y="259"/><ellipse cx="372.75" cy="275" fill="#ADD1B2" rx="11" ry="11" style="stroke:#181818;stroke-width:1.0;"/><path d="M375.2231,281.1431 Q374.6421,281.4419 374.0029,281.5913 Q373.3638,281.7407 372.6582,281.7407 Q370.1514,281.7407 368.8315,280.0889 Q367.5117,278.437 367.5117,275.3159 Q367.5117,272.1865 368.8315,270.5347 Q370.1514,268.8828 372.6582,268.8828 Q373.3638,268.8828 374.0112,269.0322 Q374.6587,269.1816 375.2231,269.4805 L375.2231,272.2031 Q374.5923,271.6221 373.9988,271.3523 Q373.4053,271.0825 372.7744,271.0825 Q371.4297,271.0825 370.7449,272.1492 Q370.0601,273.2158 370.0601,275.3159 Q370.0601,277.4077 370.7449,278.4744 Q371.4297,279.541 372.7744,279.541 Q373.4053,279.541 373.9988,279.2712 Q374.5923,279.0015 375.2231,278.4204 Z " fill="#000000"/><text fill="#000000" font-family="sans-serif" font-size="14" lengthAdjust="spacing" textLength="158" x="393.25" y="280.291">Composit_Binary_Node</text><line style="stroke:#181818;stroke-width:0.5;" x1="317" x2="595" y1="291" y2="291"/><rect fill="none" height="6" style="stroke:#C82930;stroke-width:1.0;" width="6" x="324" y="301.7441"/><text fill="#000000" font-family="sans-serif" font-size="14" lengthAdjust="spacing" textLength="254" x="336" y="308.5352">unique_ptr&lt;Component_Node&gt; left_</text><line style="stroke:#181818;stroke-width:0.5;" x1="317" x2="595" y1="315.4883" y2="315.4883"/></g><!--MD5=[2975dcc3fd727a4df2e03fbdd1a4b346]
class Composite_Negate_Node--><g id="elem_Composite_Negate_Node"><rect fill="#F1F1F1" height="48" id="Composite_Negate_Node" rx="2.5" ry="2.5" style="stroke:#181818;stroke-width:0.5;" width="204" x="631" y="267"/><ellipse cx="646" cy="283" fill="#ADD1B2" rx="11" ry="11" style="stroke:#181818;stroke-width:1.0;"/><path d="M648.4731,289.1431 Q647.8921,289.4419 647.2529,289.5913 Q646.6138,289.7407 645.9082,289.7407 Q643.4014,289.7407 642.0815,288.0889 Q640.7617,286.437 640.7617,283.3159 Q640.7617,280.1865 642.0815,278.5347 Q643.4014,276.8828 645.9082,276.8828 Q646.6138,276.8828 647.2612,277.0322 Q647.9087,277.1816 648.4731,277.4805 L648.4731,280.2031 Q647.8423,279.6221 647.2488,279.3523 Q646.6553,279.0825 646.0244,279.0825 Q644.6797,279.0825 643.9949,280.1492 Q643.3101,281.2158 643.3101,283.3159 Q643.3101,285.4077 643.9949,286.4744 Q644.6797,287.541 646.0244,287.541 Q646.6553,287.541 647.2488,287.2712 Q647.8423,287.0015 648.4731,286.4204 Z " fill="#000000"/><text fill="#000000" font-family="sans-serif" font-size="14" lengthAdjust="spacing" textLength="172" x="660" y="288.291">Composite_Negate_Node</text><line style="stroke:#181818;stroke-width:0.5;" x1="632" x2="834" y1="299" y2="299"/><line style="stroke:#181818;stroke-width:0.5;" x1="632" x2="834" y1="307" y2="307"/></g><!--MD5=[dbd759286430a35cac376019d47e94be]
class Composite_Add_Node--><g id="elem_Composite_Add_Node"><rect fill="#F1F1F1" height="48" id="Composite_Add_Node" rx="2.5" ry="2.5" style="stroke:#181818;stroke-width:0.5;" width="184" x="7" y="383"/><ellipse cx="22" cy="399" fill="#ADD1B2" rx="11" ry="11" style="stroke:#181818;stroke-width:1.0;"/><path d="M24.4731,405.1431 Q23.8921,405.4419 23.2529,405.5913 Q22.6138,405.7407 21.9082,405.7407 Q19.4014,405.7407 18.0815,404.0889 Q16.7617,402.437 16.7617,399.3159 Q16.7617,396.1865 18.0815,394.5347 Q19.4014,392.8828 21.9082,392.8828 Q22.6138,392.8828 23.2612,393.0322 Q23.9087,393.1816 24.4731,393.4805 L24.4731,396.2031 Q23.8423,395.6221 23.2488,395.3523 Q22.6553,395.0825 22.0244,395.0825 Q20.6797,395.0825 19.9949,396.1492 Q19.3101,397.2158 19.3101,399.3159 Q19.3101,401.4077 19.9949,402.4744 Q20.6797,403.541 22.0244,403.541 Q22.6553,403.541 23.2488,403.2712 Q23.8423,403.0015 24.4731,402.4204 Z " fill="#000000"/><text fill="#000000" font-family="sans-serif" font-size="14" lengthAdjust="spacing" textLength="152" x="36" y="404.291">Composite_Add_Node</text><line style="stroke:#181818;stroke-width:0.5;" x1="8" x2="190" y1="415" y2="415"/><line style="stroke:#181818;stroke-width:0.5;" x1="8" x2="190" y1="423" y2="423"/></g><!--MD5=[8cb9604485e0b8c86cf24a4238b42de1]
class Composite_Subtract_Node--><g id="elem_Composite_Subtract_Node"><rect fill="#F1F1F1" height="48" id="Composite_Subtract_Node" rx="2.5" ry="2.5" style="stroke:#181818;stroke-width:0.5;" width="213" x="226.5" y="383"/><ellipse cx="241.5" cy="399" fill="#ADD1B2" rx="11" ry="11" style="stroke:#181818;stroke-width:1.0;"/><path d="M243.9731,405.1431 Q243.3921,405.4419 242.7529,405.5913 Q242.1138,405.7407 241.4082,405.7407 Q238.9014,405.7407 237.5815,404.0889 Q236.2617,402.437 236.2617,399.3159 Q236.2617,396.1865 237.5815,394.5347 Q238.9014,392.8828 241.4082,392.8828 Q242.1138,392.8828 242.7612,393.0322 Q243.4087,393.1816 243.9731,393.4805 L243.9731,396.2031 Q243.3423,395.6221 242.7488,395.3523 Q242.1553,395.0825 241.5244,395.0825 Q240.1797,395.0825 239.4949,396.1492 Q238.8101,397.2158 238.8101,399.3159 Q238.8101,401.4077 239.4949,402.4744 Q240.1797,403.541 241.5244,403.541 Q242.1553,403.541 242.7488,403.2712 Q243.3423,403.0015 243.9731,402.4204 Z " fill="#000000"/><text fill="#000000" font-family="sans-serif" font-size="14" lengthAdjust="spacing" textLength="181" x="255.5" y="404.291">Composite_Subtract_Node</text><line style="stroke:#181818;stroke-width:0.5;" x1="227.5" x2="438.5" y1="415" y2="415"/><line style="stroke:#181818;stroke-width:0.5;" x1="227.5" x2="438.5" y1="423" y2="423"/></g><!--MD5=[690382957fb25d1452df2ee1a16b5e6c]
class Composite_Multiply_Node--><g id="elem_Composite_Multiply_Node"><rect fill="#F1F1F1" height="48" id="Composite_Multiply_Node" rx="2.5" ry="2.5" style="stroke:#181818;stroke-width:0.5;" width="210" x="475" y="383"/><ellipse cx="490" cy="399" fill="#ADD1B2" rx="11" ry="11" style="stroke:#181818;stroke-width:1.0;"/><path d="M492.4731,405.1431 Q491.8921,405.4419 491.2529,405.5913 Q490.6138,405.7407 489.9082,405.7407 Q487.4014,405.7407 486.0815,404.0889 Q484.7617,402.437 484.7617,399.3159 Q484.7617,396.1865 486.0815,394.5347 Q487.4014,392.8828 489.9082,392.8828 Q490.6138,392.8828 491.2612,393.0322 Q491.9087,393.1816 492.4731,393.4805 L492.4731,396.2031 Q491.8423,395.6221 491.2488,395.3523 Q490.6553,395.0825 490.0244,395.0825 Q488.6797,395.0825 487.9949,396.1492 Q487.3101,397.2158 487.3101,399.3159 Q487.3101,401.4077 487.9949,402.4744 Q488.6797,403.541 490.0244,403.541 Q490.6553,403.541 491.2488,403.2712 Q491.8423,403.0015 492.4731,402.4204 Z " fill="#000000"/><text fill="#000000" font-family="sans-serif" font-size="14" lengthAdjust="spacing" textLength="178" x="504" y="404.291">Composite_Multiply_Node</text><line style="stroke:#181818;stroke-width:0.5;" x1="476" x2="684" y1="415" y2="415"/><line style="stroke:#181818;stroke-width:0.5;" x1="476" x2="684" y1="423" y2="423"/></g><!--MD5=[07e8f53a33fb5fd267de28a6587568ef]
class Composite_Divide_Node--><g id="elem_Composite_Divide_Node"><rect fill="#F1F1F1" height="48" id="Composite_Divide_Node" rx="2.5" ry="2.5" style="stroke:#181818;stroke-width:0.5;" width="198" x="720" y="383"/><ellipse cx="735" cy="399" fill="#ADD1B2" rx="11" ry="11" style="stroke:#181818;stroke-width:1.0;"/><path d="M737.4731,405.1431 Q736.8921,405.4419 736.2529,405.5913 Q735.6138,405.7407 734.9082,405.7407 Q732.4014,405.7407 731.0815,404.0889 Q729.7617,402.437 729.7617,399.3159 Q729.7617,396.1865 731.0815,394.5347 Q732.4014,392.8828 734.9082,392.8828 Q735.6138,392.8828 736.2612,393.0322 Q736.9087,393.1816 737.4731,393.4805 L737.4731,396.2031 Q736.8423,395.6221 736.2488,395.3523 Q735.6553,395.0825 735.0244,395.0825 Q733.6797,395.0825 732.9949,396.1492 Q732.3101,397.2158 732.3101,399.3159 Q732.3101,401.4077 732.9949,402.4744 Q733.6797,403.541 735.0244,403.541 Q735.6553,403.541 736.2488,403.2712 Q736.8423,403.0015 737.4731,402.4204 Z " fill="#000000"/><text fill="#000000" font-family="sans-serif" font-size="14" lengthAdjust="spacing" textLength="166" x="749" y="404.291">Composite_Divide_Node</text><line style="stroke:#181818;stroke-width:0.5;" x1="721" x2="917" y1="415" y2="415"/><line style="stroke:#181818;stroke-width:0.5;" x1="721" x2="917" y1="423" y2="423"/></g><!--MD5=[7596e80a2549d1e660323a2a91df2611]
class Expression_Tree--><g id="elem_Expression_Tree"><rect codeLine="23" fill="#F1F1F1" height="64.4883" id="Expression_Tree" rx="2.5" ry="2.5" style="stroke:#181818;stroke-width:0.5;" width="291" x="297.5" y="7"/><ellipse cx="381.75" cy="23" fill="#ADD1B2" rx="11" ry="11" style="stroke:#181818;stroke-width:1.0;"/><path d="M384.2231,29.1431 Q383.6421,29.4419 383.0029,29.5913 Q382.3638,29.7407 381.6582,29.7407 Q379.1514,29.7407 377.8315,28.0889 Q376.5117,26.437 376.5117,23.3159 Q376.5117,20.1865 377.8315,18.5347 Q379.1514,16.8828 381.6582,16.8828 Q382.3638,16.8828 383.0112,17.0322 Q383.6587,17.1816 384.2231,17.4805 L384.2231,20.2031 Q383.5923,19.6221 382.9988,19.3523 Q382.4053,19.0825 381.7744,19.0825 Q380.4297,19.0825 379.7449,20.1492 Q379.0601,21.2158 379.0601,23.3159 Q379.0601,25.4077 379.7449,26.4744 Q380.4297,27.541 381.7744,27.541 Q382.4053,27.541 382.9988,27.2712 Q383.5923,27.0015 384.2231,26.4204 Z " fill="#000000"/><text fill="#000000" font-family="sans-serif" font-size="14" lengthAdjust="spacing" textLength="114" x="402.25" y="28.291">Expression_Tree</text><line style="stroke:#181818;stroke-width:0.5;" x1="298.5" x2="587.5" y1="39" y2="39"/><rect fill="none" height="6" style="stroke:#C82930;stroke-width:1.0;" width="6" x="305.5" y="49.7441"/><text fill="#000000" font-family="sans-serif" font-size="14" lengthAdjust="spacing" textLength="265" x="317.5" y="56.5352">Refcounter &lt;Component_Node&gt; root_</text><line style="stroke:#181818;stroke-width:0.5;" x1="298.5" x2="587.5" y1="63.4883" y2="63.4883"/></g><!--MD5=[55f6fbab2b4ec5a6011ffbea1a166288]
reverse link Component_Node to Composit_Unary_Node--><g id="link_Component_Node_Composit_Unary_Node"><path codeLine="2" d="M666.64,87.1 C651.93,103.08 635.87,120.52 622.6,134.93 " fill="none" id="Component_Node-backto-Composit_Unary_Node" style="stroke:#181818;stroke-width:1.0;"/><polygon fill="none" points="661.31,82.56,680,72.58,671.61,92.04,661.31,82.56" style="stroke:#181818;stroke-width:1.0;"/></g><!--MD5=[a4e7ad6d8c66b4e2d28f21b3e57ef66c]
reverse link Component_Node to Leaf_Node--><g id="link_Component_Node_Leaf_Node"><path codeLine="3" d="M753.36,87.1 C768.07,103.08 784.13,120.52 797.4,134.93 " fill="none" id="Component_Node-backto-Leaf_Node" style="stroke:#181818;stroke-width:1.0;"/><polygon fill="none" points="748.39,92.04,740,72.58,758.69,82.56,748.39,92.04" style="stroke:#181818;stroke-width:1.0;"/></g><!--MD5=[c3b5cad00d43fdc5f187e1d266cd84c6]
reverse link Composit_Unary_Node to Composit_Binary_Node--><g id="link_Composit_Unary_Node_Composit_Binary_Node"><path codeLine="4" d="M542.45,213.57 C525.45,228.6 506.94,244.97 491.42,258.69 " fill="none" id="Composit_Unary_Node-backto-Composit_Binary_Node" style="stroke:#181818;stroke-width:1.0;"/><polygon fill="none" points="537.71,208.42,557.33,200.42,546.98,218.91,537.71,208.42" style="stroke:#181818;stroke-width:1.0;"/></g><!--MD5=[e9d31f1a4ca8c41a7f50f4acb78ce364]
reverse link Composit_Unary_Node to Composite_Negate_Node--><g id="link_Composit_Unary_Node_Composite_Negate_Node"><path codeLine="5" d="M645.75,213.42 C666.44,231.58 689.38,251.72 706.55,266.78 " fill="none" id="Composit_Unary_Node-backto-Composite_Negate_Node" style="stroke:#181818;stroke-width:1.0;"/><polygon fill="none" points="641.35,218.87,630.93,200.42,650.58,208.35,641.35,218.87" style="stroke:#181818;stroke-width:1.0;"/></g><!--MD5=[80519b272e1ff641afea2fa02050323a]
reverse link Composit_Binary_Node to Composite_Add_Node--><g id="link_Composit_Binary_Node_Composite_Add_Node"><path codeLine="6" d="M337.11,329.96 C282.71,347.34 219.96,367.37 172.54,382.52 " fill="none" id="Composit_Binary_Node-backto-Composite_Add_Node" style="stroke:#181818;stroke-width:1.0;"/><polygon fill="none" points="334.88,323.33,356.06,323.91,339.14,336.67,334.88,323.33" style="stroke:#181818;stroke-width:1.0;"/></g><!--MD5=[41a591577d4d88c82b2c7533c7edfde8]
reverse link Composit_Binary_Node to Composite_Subtract_Node--><g id="link_Composit_Binary_Node_Composite_Subtract_Node"><path codeLine="7" d="M406.42,337.95 C389.88,353.28 372.14,369.73 358.24,382.61 " fill="none" id="Composit_Binary_Node-backto-Composite_Subtract_Node" style="stroke:#181818;stroke-width:1.0;"/><polygon fill="none" points="401.53,332.94,420.95,324.48,411.04,343.21,401.53,332.94" style="stroke:#181818;stroke-width:1.0;"/></g><!--MD5=[efc11a031d2c31d583f8734a98fd274e]
reverse link Composit_Binary_Node to Composite_Multiply_Node--><g id="link_Composit_Binary_Node_Composite_Multiply_Node"><path codeLine="8" d="M505.98,337.95 C522.66,353.28 540.54,369.73 554.55,382.61 " fill="none" id="Composit_Binary_Node-backto-Composite_Multiply_Node" style="stroke:#181818;stroke-width:1.0;"/><polygon fill="none" points="501.31,343.17,491.33,324.48,510.79,332.86,501.31,343.17" style="stroke:#181818;stroke-width:1.0;"/></g><!--MD5=[74171d24aec124361fce00b4cf476ac1]
reverse link Composit_Binary_Node to Composite_Divide_Node--><g id="link_Composit_Binary_Node_Composite_Divide_Node"><path codeLine="9" d="M576.52,329.85 C631.92,347.25 695.9,367.34 744.22,382.52 " fill="none" id="Composit_Binary_Node-backto-Composite_Divide_Node" style="stroke:#181818;stroke-width:1.0;"/><polygon fill="none" points="574.58,336.58,557.6,323.91,578.77,323.22,574.58,336.58" style="stroke:#181818;stroke-width:1.0;"/></g><!--MD5=[85fd3911fcba660778cc37440eb4fa01]
reverse link Expression_Tree to Component_Node--><g id="link_Expression_Tree_Component_Node"><path codeLine="26" d="M590,51 C603.5,55.32 617.81,57.76 631.66,58.73 " fill="none" id="Expression_Tree-backto-Component_Node" style="stroke:#181818;stroke-width:1.0;"/><polygon fill="none" points="590,51,594.4954,56.6384,601.4291,54.6573,596.9336,49.019,590,51" style="stroke:#181818;stroke-width:1.0;"/></g><!--MD5=[b397fc2fcd423529bc60a24072848863]
@startuml composite
    Component_Node <|- - Composit_Unary_Node
    Component_Node <|- - Leaf_Node
    Composit_Unary_Node <|- - Composit_Binary_Node 
    Composit_Unary_Node <|- - Composite_Negate_Node 
    Composit_Binary_Node <|- - Composite_Add_Node
    Composit_Binary_Node <|- - Composite_Subtract_Node
    Composit_Binary_Node <|- - Composite_Multiply_Node
    Composit_Binary_Node <|- - Composite_Divide_Node

    class Component_Node {
        -int type_
    }
    class Leaf_Node {
        -int item_
    }
    class Composit_Unary_Node {
        -unique_ptr<Component_Node> right_ 
    }
    class Composit_Binary_Node {
        -unique_ptr<Component_Node> left_
    }
    class Expression_Tree {
        -Refcounter <Component_Node> root_
    }
    Expression_Tree::root_ o- Component_Node 
@enduml

PlantUML version 1.2022.13(Sat Nov 19 07:22:17 CST 2022)
(GPL source distribution)
Java Runtime: OpenJDK Runtime Environment
JVM: OpenJDK 64-Bit Server VM
Default Encoding: UTF-8
Language: en
Country: MX
--></g></svg>